<svg width="8" height="12" viewBox="0 0 8 12" fill="none" xmlns="http://www.w3.org/2000/svg">
<path d="M3.60742 11.0909H4.40856L4.41282 10.1321C6.21538 10 7.24663 8.96875 7.24663 7.58807C7.24663 6.01562 5.84464 5.40625 4.73668 5.13352L4.4256 5.05256L4.43413 2.31676C5.231 2.4233 5.77646 2.86648 5.85742 3.56534H7.12731C7.09322 2.26562 6.01935 1.29403 4.43839 1.16619L4.44265 0.181818H3.64151L3.63725 1.17472C2.10742 1.32812 0.986683 2.28267 0.986683 3.65909C0.986683 4.87358 1.856 5.58523 3.25799 5.96449L3.62447 6.0625L3.61594 8.96449C2.78498 8.86222 2.14151 8.41051 2.07333 7.58807H0.752308C0.833274 9.05824 1.89435 10.0043 3.61168 10.1321L3.60742 11.0909ZM4.41708 8.96449L4.4256 6.28409C5.29066 6.52273 5.94265 6.83807 5.94265 7.57528C5.94265 8.32102 5.32049 8.84517 4.41708 8.96449ZM3.62873 4.83949C2.99379 4.65199 2.29492 4.31534 2.29918 3.58239C2.29918 2.94318 2.80629 2.4446 3.63299 2.32102L3.62873 4.83949Z" fill="#363636"/>
</svg>
